<svg width="55" height="55" viewBox="0 0 55 55" fill="none" xmlns="http://www.w3.org/2000/svg">
<circle cx="27.5" cy="27.5" r="27" fill="#AB0C36" stroke="white"/>
<path d="M14.4827 15.7341C15.9668 15.7341 17.1699 14.5237 17.1699 13.0306C17.1699 11.5375 15.9668 10.3271 14.4827 10.3271C12.9985 10.3271 11.7954 11.5375 11.7954 13.0306C11.7954 14.5237 12.9985 15.7341 14.4827 15.7341Z" fill="#FFFEF6"/>
<path d="M14.5118 18.583C13.7578 18.583 12.7235 18.5441 12.2885 18.5441C12.0662 18.5441 11.7859 18.8164 11.7859 19.0984V44.0133C11.7859 44.5092 12.1919 44.7718 12.8105 44.7718H25.5412C33.3613 44.7718 41.3747 36.1362 41.3747 28.405C41.3747 20.6738 35.2075 16.3949 29.5527 17.0465C35.0142 20.3626 35.9905 24.6415 35.9035 28.405C35.8071 32.5769 32.7233 39.4134 22.8152 39.4134H17.6437C17.4214 39.4134 17.2184 39.287 17.2184 38.7522V19.6235C17.2184 19.361 17.2957 18.9622 17.0251 18.6705C16.7544 18.3788 15.2658 18.583 14.5118 18.583Z" fill="#FFFEFF"/>
<path d="M21.1527 38.2471C20.3987 38.2471 19.3644 38.286 18.9294 38.286C18.7071 38.286 18.4268 38.0137 18.4268 37.7316V11.0857C18.4268 10.5898 18.8327 10.3272 19.4514 10.3272C20.07 10.3272 23.4823 10.0744 32.4624 10.3272C40.2794 10.5473 48.0156 18.6225 48.0156 26.694C48.0156 34.4252 42.8924 44.3737 31.3024 44.6654C43.5207 37.79 42.5444 28.7849 42.5444 26.694C42.5444 22.5209 39.9055 15.6856 29.4561 15.6856H24.2846C24.0623 15.6856 23.8593 15.812 23.8593 16.3468V37.2065C23.8593 37.4691 23.9366 37.8678 23.6659 38.1595C23.3953 38.4513 21.9067 38.2471 21.1527 38.2471Z" fill="#DA9096"/>
</svg>
