<svg width="24" height="24" viewBox="0 0 24 24" fill="none" xmlns="http://www.w3.org/2000/svg">
<path fill-rule="evenodd" clip-rule="evenodd" d="M10.8584 0.0278324C6.78785 0.420739 3.15213 2.88711 1.30976 6.50539C0.658195 7.78508 0.273211 9.01897 0.0625546 10.5027C-0.0308204 11.1607 -0.0172736 12.8629 0.0872577 13.5965C0.272883 14.8992 0.656976 16.1337 1.24563 17.3196C2.41352 19.6723 4.27924 21.5377 6.63673 22.71C10.4584 24.6103 14.9749 24.3491 18.5395 22.0214C19.9332 21.1113 21.2541 19.762 22.1559 18.3274C22.4986 17.7821 23.016 16.722 23.2511 16.0839C23.4879 15.4408 23.764 14.3246 23.8664 13.5965C23.9702 12.8589 23.9842 11.1525 23.8918 10.5027C23.6151 8.55613 22.9978 6.89891 21.973 5.35119C21.5372 4.69297 21.1019 4.16193 20.4955 3.54857C18.6259 1.65763 16.3003 0.484864 13.6411 0.0920042C13.0676 0.00730112 11.4561 -0.0298707 10.8584 0.0278324ZM15.3107 6.08732C16.6177 6.48003 17.5547 7.44641 17.8875 8.74494C17.9846 9.12393 17.9846 14.8346 17.8875 15.2136C17.5446 16.5514 16.5491 17.5468 15.2113 17.8897C14.8324 17.9869 9.12166 17.9869 8.74268 17.8897C7.43346 17.5542 6.45499 16.5976 6.08191 15.2886C6.00832 15.0304 6.00044 14.7101 6.00044 11.9793C6.00044 8.6743 5.9936 8.768 6.28273 8.11429C6.72602 7.11191 7.73098 6.28025 8.74263 6.0785C8.88443 6.05019 9.04263 6.01822 9.09419 6.00744C9.14576 5.99666 10.5063 5.99244 12.1176 5.99802C14.7125 6.00702 15.0774 6.01724 15.3107 6.08732ZM8.94255 7.2703C8.5392 7.37891 8.22209 7.56824 7.89405 7.89632C7.55862 8.23171 7.37557 8.54305 7.2657 8.96488C7.16055 9.36843 7.1622 14.5963 7.26752 15.0007C7.37857 15.427 7.60024 15.796 7.93155 16.1059C8.26488 16.4178 8.56207 16.5863 8.96262 16.6906C9.36616 16.7957 14.594 16.7941 14.9985 16.6888C15.4248 16.5777 15.7938 16.356 16.1036 16.0247C16.4155 15.6914 16.584 15.3942 16.6883 14.9937C16.792 14.5958 16.792 9.36275 16.6883 8.96488C16.584 8.56433 16.4155 8.26715 16.1036 7.93382C15.7938 7.6025 15.4248 7.38083 14.9985 7.26979C14.607 7.16783 9.32135 7.16825 8.94255 7.2703ZM15.2838 8.14096C15.5392 8.20522 15.8012 8.47583 15.8476 8.72319C15.9181 9.09899 15.6304 9.54979 15.2777 9.61593C14.8889 9.68886 14.5565 9.52204 14.4041 9.1775C14.2221 8.76622 14.4251 8.3128 14.8598 8.15905C15.091 8.0773 15.0398 8.0795 15.2838 8.14096ZM12.6537 8.95602C13.5138 9.13822 14.343 9.78421 14.7336 10.5763C14.9967 11.1099 15.0863 11.5433 15.0576 12.1435C15.0185 12.9603 14.7402 13.5746 14.1333 14.1836C13.5516 14.7673 12.8137 15.0709 11.9728 15.0723C11.1265 15.0738 10.415 14.7752 9.79643 14.159C9.18223 13.5471 8.88326 12.8334 8.88326 11.9793C8.88326 11.1261 9.18185 10.4127 9.79615 9.79841C10.5655 9.02915 11.5829 8.72919 12.6537 8.95602ZM11.3051 10.2168C10.7692 10.4413 10.4924 10.7038 10.2536 11.2135C10.1395 11.4571 10.1254 11.541 10.1254 11.9793C10.1254 12.4353 10.1364 12.4946 10.2748 12.7867C10.4614 13.1807 10.7779 13.4952 11.1801 13.6861C11.4605 13.8193 11.5241 13.8308 11.977 13.8308C12.4327 13.8308 12.4925 13.8198 12.7833 13.6821C13.1829 13.4927 13.4905 13.1852 13.6798 12.7856C13.8175 12.4948 13.8286 12.4349 13.8286 11.9793C13.8286 11.5236 13.8175 11.4638 13.6798 11.173C13.4905 10.7734 13.1829 10.4658 12.7833 10.2765C12.5097 10.1469 12.4118 10.1261 12.0239 10.115C11.6396 10.1039 11.5411 10.1179 11.3051 10.2168Z" fill="white"/>
</svg>
