<svg width="24" height="24" viewBox="0 0 24 24" fill="none" xmlns="http://www.w3.org/2000/svg">
<path fill-rule="evenodd" clip-rule="evenodd" d="M10.8714 0.0278324C4.58635 0.634489 -0.195463 6.03871 0.00614635 12.3074C0.0647401 14.1306 0.45924 15.7091 1.25865 17.3196C2.42654 19.6723 4.29226 21.5377 6.64974 22.71C10.4714 24.6103 14.988 24.3491 18.5525 22.0214C19.9463 21.1113 21.2671 19.762 22.1689 18.3274C22.5116 17.7821 23.029 16.722 23.2641 16.0839C23.5009 15.4408 23.777 14.3246 23.8794 13.5965C23.9832 12.8589 23.9972 11.1525 23.9049 10.5027C23.6281 8.55613 23.0108 6.89891 21.986 5.35119C21.5502 4.69297 21.1149 4.16193 20.5085 3.54857C18.6389 1.65763 16.3133 0.484864 13.6541 0.0920042C13.0807 0.00730112 11.4691 -0.0298707 10.8714 0.0278324ZM13.2556 6.11385C15.3036 6.58639 16.9168 8.01463 17.6042 9.96364C17.8558 10.677 17.9191 11.0767 17.9159 11.9324C17.9134 12.5924 17.8952 12.782 17.7918 13.2254C17.2441 15.5726 15.4478 17.3067 13.0767 17.7769C12.803 17.8312 12.4395 17.8579 11.9666 17.8586C11.1295 17.8597 10.5522 17.7519 9.80002 17.4541L9.32096 17.2644L7.80783 17.6226C6.97562 17.8197 6.26883 17.9805 6.23719 17.9801C6.20555 17.9796 6.14893 17.9318 6.11133 17.8738C6.04937 17.7782 6.07308 17.6233 6.36582 16.2117L6.68865 14.6551L6.49974 14.2031C6.18549 13.451 6.06718 12.8402 6.06451 11.9558C6.06127 10.8807 6.22271 10.1858 6.69699 9.23404C7.48899 7.6446 9.05747 6.44638 10.7947 6.10372C11.3813 5.98804 11.4099 5.98593 12.1541 6.00444C12.6303 6.01625 12.9858 6.05155 13.2556 6.11385ZM11.1623 7.35829C9.64121 7.64722 8.29543 8.71635 7.72355 10.0901C7.43743 10.7774 7.37982 11.0829 7.37616 11.9324C7.37222 12.8496 7.44957 13.2094 7.81613 13.9793L8.0431 14.456L7.85879 15.337C7.75744 15.8216 7.68047 16.2413 7.68774 16.2697C7.69637 16.3035 8.01296 16.2485 8.60133 16.1111L9.50171 15.9008L9.96071 16.1162C10.716 16.4706 11.0811 16.5483 11.99 16.548C12.6502 16.5479 12.8218 16.5321 13.1619 16.4399C14.5265 16.0704 15.6153 15.1553 16.2162 13.8732C16.5339 13.1952 16.6003 12.867 16.604 11.9558C16.6068 11.2616 16.5932 11.1076 16.4985 10.7605C16.0465 9.10513 14.7986 7.87171 13.1232 7.42447C12.6597 7.30072 11.6454 7.2665 11.1623 7.35829ZM10.2509 9.14999C10.359 9.22569 10.5561 9.61349 10.8235 10.2766C10.9786 10.6611 10.9703 10.7156 10.7036 11.065C10.4716 11.3689 10.4775 11.542 10.731 11.8706C11.191 12.4669 12.3965 13.4324 12.681 13.4324C12.8393 13.4324 12.9625 13.3588 13.2411 13.0978C13.3749 12.9725 13.5226 12.8699 13.5693 12.8699C13.616 12.8699 13.9495 12.9539 14.3104 13.0565C14.8169 13.2006 14.9906 13.2707 15.0721 13.3638C15.2382 13.5539 15.2111 13.7514 14.9749 14.0723C14.5483 14.6518 14.2402 14.8133 13.5603 14.8136C13.0006 14.8138 12.5893 14.7029 12.0042 14.3937C11.4546 14.1033 11.0528 13.8037 10.4947 13.2683C9.48638 12.3012 8.98918 11.3954 8.99049 10.528C8.99119 10.0496 9.27512 9.53193 9.71358 9.20947C9.92288 9.05554 10.0897 9.03707 10.2509 9.14999Z" fill="white"/>
</svg>
